# xmcd
#
# Track frame offsets:
#	150
#	24130
#	57129
#	89234
#	111306
#	135314
#	156866
#	179745
#	202589
#	230112
#
# Disc length: 3635 seconds
#
# Revision: 0
# Processed by: cddbd v1.5.1PL2 Copyright (c) Steve Scherf et al.
# Submitted via: dBpowerAMP V4.0
#
DISCID=820e310a
DTITLE=Manu Hartmann and Band - colors of blues
DYEAR=2006
DGENRE=Blues
TTITLE0=Spoonful
TTITLE1=Inner City Blues (Make's Me Wanna Holler)
TTITLE2=Chicken Heads
TTITLE3=Who's Been Talkin'
TTITLE4=Son Of A Preacherman
TTITLE5=(Sittin' On) The Dock Of The Bay
TTITLE6=You Gotta Move
TTITLE7=I Just Wanna Make Love To You
TTITLE8=What'd I Say
TTITLE9=Hit The Road Jack
EXTD=
EXTT0=
EXTT1=
EXTT2=
EXTT3=
EXTT4=
EXTT5=
EXTT6=
EXTT7=
EXTT8=
EXTT9=
PLAYORDER=
